<svg xmlns="http://www.w3.org/2000/svg"  viewBox="0 0 100 100" width="50px" height="50px"><path fill="#c7ede6" d="M87.215,56.71C88.35,54.555,89,52.105,89,49.5c0-6.621-4.159-12.257-10.001-14.478 C78.999,35.015,79,35.008,79,35c0-11.598-9.402-21-21-21c-9.784,0-17.981,6.701-20.313,15.757C36.211,29.272,34.638,29,33,29 c-7.692,0-14.023,5.793-14.89,13.252C12.906,43.353,9,47.969,9,53.5C9,59.851,14.149,65,20.5,65c0.177,0,0.352-0.012,0.526-0.022 C21.022,65.153,21,65.324,21,65.5C21,76.822,30.178,86,41.5,86c6.437,0,12.175-2.972,15.934-7.614C59.612,80.611,62.64,82,66,82 c4.65,0,8.674-2.65,10.666-6.518C77.718,75.817,78.837,76,80,76c6.075,0,11-4.925,11-11C91,61.689,89.53,58.727,87.215,56.71z"/><path fill="#fdfcef" d="M76.5,60.5V61h3v-0.5c0,0,4.242,0,5.5,0c2.485,0,4.5-2.015,4.5-4.5 c0-2.333-1.782-4.229-4.055-4.455C85.467,51.364,85.5,51.187,85.5,51c0-2.485-2.015-4.5-4.5-4.5c-1.438,0-2.703,0.686-3.527,1.736 C77.333,45.6,75.171,43.5,72.5,43.5c-2.761,0-5,2.239-5,5c0,0.446,0.077,0.87,0.187,1.282C67.045,49.005,66.086,48.5,65,48.5 c-1.781,0-3.234,1.335-3.455,3.055C61.364,51.533,61.187,51.5,61,51.5c-2.485,0-4.5,2.015-4.5,4.5s2.015,4.5,4.5,4.5s9.5,0,9.5,0 H76.5z"/><path fill="#472b29" d="M72.5,43c-3.033,0-5.5,2.467-5.5,5.5c0,0.016,0,0.031,0,0.047C66.398,48.192,65.71,48,65,48 c-1.831,0-3.411,1.261-3.858,3.005C61.095,51.002,61.048,51,61,51c-2.757,0-5,2.243-5,5s2.243,5,5,5h15.5 c0.276,0,0.5-0.224,0.5-0.5S76.776,60,76.5,60H61c-2.206,0-4-1.794-4-4s1.794-4,4-4c0.117,0,0.23,0.017,0.343,0.032l0.141,0.019 c0.021,0.003,0.041,0.004,0.062,0.004c0.246,0,0.462-0.185,0.495-0.437C62.232,50.125,63.504,49,65,49 c0.885,0,1.723,0.401,2.301,1.1c0.098,0.118,0.241,0.182,0.386,0.182c0.078,0,0.156-0.018,0.228-0.056 c0.209-0.107,0.314-0.346,0.254-0.573C68.054,49.218,68,48.852,68,48.5c0-2.481,2.019-4.5,4.5-4.5 c2.381,0,4.347,1.872,4.474,4.263c0.011,0.208,0.15,0.387,0.349,0.45c0.05,0.016,0.101,0.024,0.152,0.024 c0.15,0,0.296-0.069,0.392-0.192C78.638,47.563,79.779,47,81,47c2.206,0,4,1.794,4,4c0,0.117-0.017,0.23-0.032,0.343l-0.019,0.141 c-0.016,0.134,0.022,0.268,0.106,0.373c0.084,0.105,0.207,0.172,0.34,0.185C87.451,52.247,89,53.949,89,56c0,2.206-1.794,4-4,4 h-5.5c-0.276,0-0.5,0.224-0.5,0.5s0.224,0.5,0.5,0.5H85c2.757,0,5-2.243,5-5c0-2.397-1.689-4.413-4.003-4.877 C85.999,51.082,86,51.041,86,51c0-2.757-2.243-5-5-5c-1.176,0-2.293,0.416-3.183,1.164C77.219,44.76,75.055,43,72.5,43L72.5,43z"/><path fill="#472b29" d="M71,50c-1.403,0-2.609,0.999-2.913,2.341C67.72,52.119,67.301,52,66.875,52 c-1.202,0-2.198,0.897-2.353,2.068C64.319,54.022,64.126,54,63.937,54c-1.529,0-2.811,1.2-2.918,2.732 C61.01,56.87,61.114,56.99,61.251,57c0.006,0,0.012,0,0.018,0c0.13,0,0.24-0.101,0.249-0.232c0.089-1.271,1.151-2.268,2.419-2.268 c0.229,0,0.47,0.042,0.738,0.127c0.022,0.007,0.045,0.01,0.067,0.01c0.055,0,0.11-0.02,0.156-0.054 C64.962,54.537,65,54.455,65,54.375c0-1.034,0.841-1.875,1.875-1.875c0.447,0,0.885,0.168,1.231,0.473 c0.047,0.041,0.106,0.063,0.165,0.063c0.032,0,0.063-0.006,0.093-0.019c0.088-0.035,0.148-0.117,0.155-0.212 C68.623,51.512,69.712,50.5,71,50.5c0.208,0,0.425,0.034,0.682,0.107c0.023,0.007,0.047,0.01,0.07,0.01 c0.109,0,0.207-0.073,0.239-0.182c0.038-0.133-0.039-0.271-0.172-0.309C71.517,50.04,71.256,50,71,50L71,50z"/><path fill="#472b29" d="M84.883,51.5c-1.326,0-2.508,0.897-2.874,2.182c-0.038,0.133,0.039,0.271,0.172,0.309 C82.205,53.997,82.228,54,82.25,54c0.109,0,0.209-0.072,0.24-0.182C82.795,52.748,83.779,52,84.883,52 c0.117,0,0.23,0.014,0.342,0.029c0.012,0.002,0.023,0.003,0.035,0.003c0.121,0,0.229-0.092,0.246-0.217 c0.019-0.137-0.077-0.263-0.214-0.281C85.158,51.516,85.022,51.5,84.883,51.5L84.883,51.5z"/><path fill="#fff" d="M15.5,51h-10C5.224,51,5,50.776,5,50.5S5.224,50,5.5,50h10c0.276,0,0.5,0.224,0.5,0.5 S15.777,51,15.5,51z"/><path fill="#fff" d="M18.5,51h-1c-0.276,0-0.5-0.224-0.5-0.5s0.224-0.5,0.5-0.5h1c0.276,0,0.5,0.224,0.5,0.5 S18.777,51,18.5,51z"/><path fill="#fff" d="M23.491,53H14.5c-0.276,0-0.5-0.224-0.5-0.5s0.224-0.5,0.5-0.5h8.991c0.276,0,0.5,0.224,0.5,0.5 S23.767,53,23.491,53z"/><path fill="#fff" d="M12.5,53h-1c-0.276,0-0.5-0.224-0.5-0.5s0.224-0.5,0.5-0.5h1c0.276,0,0.5,0.224,0.5,0.5 S12.777,53,12.5,53z"/><path fill="#fff" d="M9.5,53h-2C7.224,53,7,52.776,7,52.5S7.224,52,7.5,52h2c0.276,0,0.5,0.224,0.5,0.5S9.777,53,9.5,53 z"/><path fill="#fff" d="M15.5,55h-2c-0.276,0-0.5-0.224-0.5-0.5s0.224-0.5,0.5-0.5h2c0.276,0,0.5,0.224,0.5,0.5 S15.776,55,15.5,55z"/><path fill="#fff" d="M18.5,46c-0.177,0-0.823,0-1,0c-0.276,0-0.5,0.224-0.5,0.5c0,0.276,0.224,0.5,0.5,0.5 c0.177,0,0.823,0,1,0c0.276,0,0.5-0.224,0.5-0.5C19,46.224,18.776,46,18.5,46z"/><path fill="#fff" d="M18.5,48c-0.177,0-4.823,0-5,0c-0.276,0-0.5,0.224-0.5,0.5c0,0.276,0.224,0.5,0.5,0.5 c0.177,0,4.823,0,5,0c0.276,0,0.5-0.224,0.5-0.5C19,48.224,18.776,48,18.5,48z"/><path fill="#fff" d="M23.5,50c-0.177,0-2.823,0-3,0c-0.276,0-0.5,0.224-0.5,0.5c0,0.276,0.224,0.5,0.5,0.5 c0.177,0,2.823,0,3,0c0.276,0,0.5-0.224,0.5-0.5C24,50.224,23.776,50,23.5,50z"/><g><path fill="#fff" d="M72.5,24h-10c-0.276,0-0.5-0.224-0.5-0.5s0.224-0.5,0.5-0.5h10c0.276,0,0.5,0.224,0.5,0.5 S72.776,24,72.5,24z"/><path fill="#fff" d="M76.5,24h-2c-0.276,0-0.5-0.224-0.5-0.5s0.224-0.5,0.5-0.5h2c0.276,0,0.5,0.224,0.5,0.5 S76.776,24,76.5,24z"/><path fill="#fff" d="M81.5,26h-10c-0.276,0-0.5-0.224-0.5-0.5s0.224-0.5,0.5-0.5h10c0.276,0,0.5,0.224,0.5,0.5 S81.777,26,81.5,26z"/><path fill="#fff" d="M69.5,26h-1c-0.276,0-0.5-0.224-0.5-0.5s0.224-0.5,0.5-0.5h1c0.276,0,0.5,0.224,0.5,0.5 S69.776,26,69.5,26z"/><path fill="#fff" d="M66.47,26H64.5c-0.276,0-0.5-0.224-0.5-0.5s0.224-0.5,0.5-0.5h1.97c0.276,0,0.5,0.224,0.5,0.5 S66.746,26,66.47,26z"/><path fill="#fff" d="M75.5,22h-5c-0.276,0-0.5-0.224-0.5-0.5s0.224-0.5,0.5-0.5h5c0.276,0,0.5,0.224,0.5,0.5 S75.777,22,75.5,22z"/><path fill="#fff" d="M72.5,28h-2c-0.276,0-0.5-0.224-0.5-0.5s0.224-0.5,0.5-0.5h2c0.276,0,0.5,0.224,0.5,0.5 S72.776,28,72.5,28z"/></g><g><circle cx="52" cy="50" r="23.25" fill="#78a2d2"/><path fill="#472b29" d="M52,73.95c-13.206,0-23.95-10.744-23.95-23.95S38.794,26.05,52,26.05S75.95,36.794,75.95,50 S65.206,73.95,52,73.95z M52,27.45c-12.434,0-22.55,10.115-22.55,22.55S39.566,72.55,52,72.55S74.55,62.435,74.55,50 S64.434,27.45,52,27.45z"/></g><g><ellipse cx="51.94" cy="50.12" fill="#78a2d2" rx="19.595" ry="19.535"/></g><g><path fill="#472b29" d="M70.623,44.987c-0.214,0-0.412-0.138-0.478-0.353c-0.084-0.275-0.175-0.548-0.271-0.816 c-0.375-1.048-0.849-2.069-1.408-3.036c-0.139-0.239-0.057-0.545,0.182-0.683c0.24-0.141,0.545-0.057,0.683,0.183 c0.589,1.019,1.088,2.095,1.483,3.197c0.102,0.283,0.197,0.571,0.287,0.86c0.081,0.265-0.067,0.544-0.331,0.625 C70.721,44.98,70.671,44.987,70.623,44.987z"/></g><g><path fill="#472b29" d="M52,70.035c-11.047,0-20.035-8.961-20.035-19.976c0-11.014,8.987-19.975,20.035-19.975 c5.734,0,11.204,2.457,15.007,6.74c0.287,0.323,0.564,0.657,0.831,1c0.169,0.218,0.13,0.532-0.087,0.701 c-0.217,0.171-0.532,0.131-0.702-0.088c-0.253-0.325-0.516-0.642-0.789-0.949c-3.614-4.07-8.811-6.404-14.259-6.404 c-10.496,0-19.035,8.512-19.035,18.975S41.504,69.035,52,69.035s19.035-8.513,19.035-18.976c0-0.955-0.072-1.912-0.213-2.846 c-0.041-0.273,0.147-0.528,0.42-0.569c0.274-0.043,0.528,0.146,0.569,0.419c0.149,0.983,0.224,1.991,0.224,2.996 C72.035,61.074,63.047,70.035,52,70.035z"/></g><g><path fill="#fdfcef" d="M36.5,73.5c0,0,1.567,0,3.5,0s3.5-1.567,3.5-3.5c0-1.781-1.335-3.234-3.055-3.455 C40.473,66.366,40.5,66.187,40.5,66c0-1.933-1.567-3.5-3.5-3.5c-1.032,0-1.95,0.455-2.59,1.165 c-0.384-1.808-1.987-3.165-3.91-3.165c-2.209,0-4,1.791-4,4c0,0.191,0.03,0.374,0.056,0.558C26.128,64.714,25.592,64.5,25,64.5 c-1.228,0-2.245,0.887-2.455,2.055C22.366,66.527,22.187,66.5,22,66.5c-1.933,0-3.5,1.567-3.5,3.5s1.567,3.5,3.5,3.5s7.5,0,7.5,0 V74h7V73.5z"/><path fill="#472b29" d="M38.25,69C38.112,69,38,68.888,38,68.75c0-1.223,0.995-2.218,2.218-2.218 c0.034,0.009,0.737-0.001,1.244,0.136c0.133,0.036,0.212,0.173,0.176,0.306c-0.036,0.134-0.173,0.213-0.306,0.176 c-0.444-0.12-1.1-0.12-1.113-0.118c-0.948,0-1.719,0.771-1.719,1.718C38.5,68.888,38.388,69,38.25,69z"/><circle cx="31.5" cy="73.5" r=".5" fill="#472b29"/><path fill="#472b29" d="M40,74h-3.5c-0.276,0-0.5-0.224-0.5-0.5s0.224-0.5,0.5-0.5H40c1.654,0,3-1.346,3-3 c0-1.496-1.125-2.768-2.618-2.959c-0.134-0.018-0.255-0.088-0.336-0.196s-0.115-0.244-0.094-0.377C39.975,66.314,40,66.16,40,66 c0-1.654-1.346-3-3-3c-0.85,0-1.638,0.355-2.219,1c-0.125,0.139-0.321,0.198-0.5,0.148c-0.182-0.049-0.321-0.195-0.36-0.379 C33.58,62.165,32.141,61,30.5,61c-1.93,0-3.5,1.57-3.5,3.5c0,0.143,0.021,0.28,0.041,0.418c0.029,0.203-0.063,0.438-0.242,0.54 c-0.179,0.102-0.396,0.118-0.556-0.01C25.878,65.155,25.449,65,25,65c-0.966,0-1.792,0.691-1.963,1.644 c-0.048,0.267-0.296,0.446-0.569,0.405C22.314,67.025,22.16,67,22,67c-1.654,0-3,1.346-3,3s1.346,3,3,3h7.5 c0.276,0,0.5,0.224,0.5,0.5S29.776,74,29.5,74H22c-2.206,0-4-1.794-4-4s1.794-4,4-4c0.059,0,0.116,0.002,0.174,0.006 C22.588,64.82,23.711,64,25,64c0.349,0,0.689,0.061,1.011,0.18C26.176,61.847,28.126,60,30.5,60c1.831,0,3.466,1.127,4.153,2.774 C35.333,62.276,36.155,62,37,62c2.206,0,4,1.794,4,4c0,0.048-0.001,0.095-0.004,0.142C42.739,66.59,44,68.169,44,70 C44,72.206,42.206,74,40,74z"/><path fill="#472b29" d="M34.5,73c-0.159,0-0.841,0-1,0c-0.276,0-0.5,0.224-0.5,0.5c0,0.276,0.224,0.5,0.5,0.5 c0.159,0,0.841,0,1,0c0.276,0,0.5-0.224,0.5-0.5C35,73.224,34.776,73,34.5,73z"/></g><g><path fill="#fff" d="M64.941,42.772c-0.897,0.407-1.86,0.682-2.874,0.804c1.033-0.632,1.826-1.634,2.2-2.827 c-0.967,0.585-2.038,1.011-3.176,1.24c-0.913-0.993-2.213-1.614-3.653-1.614c-2.763,0-5.001,2.288-5.001,5.111 c0,0.4,0.044,0.791,0.128,1.165c-4.158-0.213-7.843-2.248-10.31-5.341c-0.43,0.755-0.677,1.633-0.677,2.57 c0,1.774,0.883,3.338,2.224,4.256c-0.819-0.027-1.591-0.256-2.266-0.639c-0.001,0.021-0.001,0.043-0.001,0.064 c0,2.478,1.724,4.544,4.012,5.013c-0.419,0.116-0.861,0.179-1.318,0.179c-0.323,0-0.636-0.032-0.94-0.091 c0.636,2.03,2.484,3.508,4.672,3.55c-1.711,1.371-3.868,2.189-6.211,2.189c-0.404,0-0.803-0.025-1.193-0.071 c2.213,1.449,4.843,2.295,7.668,2.295c9.201,0,14.233-7.789,14.233-14.545c0-0.221-0.006-0.442-0.015-0.662 C63.422,44.697,64.269,43.799,64.941,42.772z"/><path fill="#472b29" d="M48.225,61.125c-2.82,0-5.566-0.822-7.942-2.377c-0.194-0.127-0.275-0.371-0.196-0.589 c0.08-0.219,0.303-0.361,0.529-0.325c2.109,0.252,4.237-0.209,6.03-1.308c-1.789-0.481-3.254-1.862-3.834-3.715 c-0.053-0.168-0.013-0.352,0.104-0.483c0.117-0.131,0.295-0.192,0.468-0.156c0.007,0.001,0.013,0.002,0.02,0.003 c-1.444-1.024-2.369-2.731-2.369-4.613c0-0.178,0.095-0.375,0.249-0.464c0.154-0.091,0.344-0.123,0.499-0.035 c0.131,0.074,0.267,0.142,0.404,0.202c-0.711-0.961-1.11-2.144-1.11-3.384c0-0.989,0.257-1.964,0.743-2.817 c0.082-0.145,0.23-0.238,0.396-0.251c0.172-0.013,0.327,0.056,0.43,0.187c2.323,2.91,5.693,4.749,9.324,5.106 c-0.021-0.204-0.032-0.411-0.032-0.619c0-3.094,2.467-5.611,5.5-5.611c1.422,0,2.797,0.567,3.818,1.567 c0.967-0.224,1.892-0.6,2.752-1.12c0.178-0.109,0.403-0.094,0.567,0.034c0.164,0.129,0.231,0.345,0.168,0.543 c-0.204,0.65-0.522,1.252-0.933,1.778c0.313-0.104,0.621-0.224,0.922-0.36c0.202-0.092,0.441-0.039,0.586,0.13 c0.145,0.168,0.161,0.412,0.039,0.599c-0.658,1.008-1.467,1.886-2.406,2.613c0.004,0.141,0.006,0.28,0.006,0.421 C62.958,53.476,57.447,61.125,48.225,61.125z M42.556,58.871c1.774,0.824,3.702,1.254,5.669,1.254 c8.597,0,13.733-7.141,13.733-14.045c0-0.215-0.005-0.429-0.014-0.642c-0.007-0.167,0.069-0.325,0.203-0.424 c0.487-0.358,0.937-0.76,1.347-1.201c-0.448,0.117-0.905,0.203-1.368,0.259c-0.229,0.035-0.455-0.109-0.532-0.332 c-0.077-0.222,0.011-0.468,0.211-0.591c0.539-0.329,0.999-0.766,1.358-1.277c-0.636,0.269-1.296,0.472-1.975,0.607 c-0.171,0.038-0.348-0.023-0.466-0.152c-0.848-0.923-2.045-1.452-3.284-1.452c-2.481,0-4.5,2.068-4.5,4.611 c0,0.36,0.039,0.716,0.116,1.055c0.035,0.152-0.004,0.313-0.105,0.433c-0.101,0.12-0.25,0.197-0.409,0.177 c-3.891-0.2-7.552-1.981-10.164-4.921c-0.196,0.524-0.298,1.085-0.298,1.651c0,1.547,0.75,2.983,2.007,3.843 c0.184,0.126,0.262,0.357,0.193,0.568c-0.069,0.211-0.269,0.358-0.492,0.345c-0.575-0.02-1.146-0.132-1.686-0.33 c0.309,1.882,1.706,3.4,3.548,3.777c0.226,0.047,0.391,0.242,0.399,0.473c0.008,0.231-0.143,0.438-0.366,0.499 c-0.525,0.146-1.066,0.214-1.612,0.195c0.754,1.469,2.239,2.429,3.902,2.461c0.21,0.004,0.396,0.14,0.463,0.339 s0.004,0.42-0.161,0.552C46.609,57.937,44.646,58.713,42.556,58.871z"/></g></svg>